<?xml version="1.0" encoding="utf-8"?>
<!DOCTYPE svg PUBLIC "-//W3C//DTD SVG 1.1//EN" "http://www.w3.org/Graphics/SVG/1.1/DTD/svg11.dtd">
<svg version="1.1" id="Wikimedia_Community_Logo" xmlns="http://www.w3.org/2000/svg" width="900" height="900" viewBox="0 0 900 900" xml:space="preserve">
  <title>Wikimedia Community Logo</title>
  <desc>For more information see: http://commons.wikimedia.org/wiki/Image:Wikimedia_Community_Logo.svg</desc>
  <path id="Green_globe" fill="#396" d="M316.607,181.288c-32.661,16.181-61.142,37.674-84.909,62.924
    c11.84,0.228,23.749-0.302,35.667-1.642C281.122,220.402,297.604,199.791,316.607,181.288z M344.76,169.076
    c25.364-1.196,50.574,0.532,75.13,5.152c8.474-7.594,16.386-15.715,23.768-24.208C410.615,150.695,377.238,156.88,344.76,169.076z
     M329.181,196.612c-13.104,12.889-24.891,26.863-35.327,41.689c15.834-3.385,31.581-8.264,47.066-14.626L329.181,196.612z
     M347.554,188.71l11.615,26.777c14.254-7.089,27.614-15.331,40.072-24.468C382.223,188.805,364.929,187.993,347.554,188.71z
     M469.043,150.59c-7.869,10.154-16.425,19.86-25.65,28.976c45.241,12.038,87.572,33.792,123.718,63.921
    c13.41-16.229,25.537-33.375,36.353-51.263C562.761,168.042,516.622,153.674,469.043,150.59z M215.031,263.431
    c-29.58,37.333-49.817,81.147-59.177,127.587c20.742,4.009,41.837,6.532,63.109,7.438c2.109-47.13,14.711-93.162,36.389-134.734
    C241.855,264.562,228.372,264.443,215.031,263.431z M425.696,195.622c-17.609,14.756-37.186,27.599-58.593,38.156l53.599,123.563
    c51.961-24.631,96.809-58.532,133.386-98.804C516.918,227.56,472.749,206.033,425.696,195.622z M279.198,261.213
    c-24.187,41.853-38.191,89.083-40.381,137.624c54.664-0.227,110.157-10.964,163.61-33.364l-53.549-123.449
    C326.031,251.443,302.652,257.804,279.198,261.213z M620.285,203.049c-11.363,18.751-24.137,36.705-38.221,53.708
    c30.282,28.655,55.362,63.708,72.955,104.267c3.636,8.38,6.899,16.826,9.763,25.332c20.221-20.811,38.791-42.933,55.613-66.226
    C697.057,271.442,662.092,231.808,620.285,203.049z M152.543,410.713c-6.693,50.225-0.743,102.722,19.734,152.764
    c28.519,3.132,57.377,4.261,86.35,3.216c-4.962-8.954-9.532-18.205-13.688-27.785c-17.021-39.242-25.481-80.079-26.224-120.45
    C196.415,417.528,174.293,414.9,152.543,410.713z M568.958,271.776c-38.444,42.413-85.615,78.084-140.298,103.914l58.996,136.006
    c60.974-28.199,114.99-65.437,161.176-109.496c-3.356-11.173-7.404-22.252-12.16-33.216
    C620.29,331.217,597.026,298.544,568.958,271.776z M238.544,418.78c0.824,37.592,8.822,75.62,24.686,112.192
    c5.218,12.029,11.143,23.528,17.689,34.497c63.289-4.675,126.855-19.573,188.464-45.644L410.387,383.82
    C354.281,407.366,295.973,418.617,238.544,418.78z M729.524,341.173c-17.708,23.575-37.148,45.984-58.285,66.977
    c13.813,53.395,13.051,108.143-0.253,159.458c26.006-18.816,50.575-39.118,73.569-60.798
    C755.015,452.925,750.777,395.681,729.524,341.173z M181.8,584.485c26.134,52.205,65.819,93.712,112.853,122.113
    c30.959-2.48,61.941-6.926,92.825-13.424c-46.589-24.809-87.222-61.107-117.145-107.035
    C240.659,587.734,211.073,587.145,181.8,584.485z M654.55,424.177c-46.03,42.384-99.245,78.383-158.909,105.924l48.325,111.407
    c35.564-16.245,69.269-34.869,100.953-55.78c0.01-0.028,0.022-0.055,0.032-0.082C662.551,534.596,666.519,478.831,654.55,424.177z
     M293.264,584.505c32.032,45.414,75.552,80.011,124.777,101.544c36.23-9.243,72.177-21.392,107.627-36.467l-48.326-111.408
    C417.168,563.657,355.139,578.845,293.264,584.505z M735.509,541.867c-23.366,20.321-48.107,39.362-74.226,56.928
    c-16.589,44.807-43.148,85.984-78.136,120.005C658.239,681.675,711.405,616.656,735.509,541.867z M326.519,723.364
    c70.12,31.632,152.104,36.354,228.878,7.474c-47.894,2.279-95.23-6.096-138.659-23.922
    C386.773,714.286,356.65,719.732,326.519,723.364z M631.788,617.651c-25.466,15.472-52.093,29.604-79.838,42.263l18.803,43.348
    C596.175,678.244,616.715,649.197,631.788,617.651z M450.059,697.98c32.784,10.14,67.398,14.745,102.371,13.297l-18.803-43.348
    C506.033,679.67,478.157,689.701,450.059,697.98z" />
  <path id="Red_path" fill="#900" d="M450,0C296.442,0,160.78,77.047,79.563,194.563l87,50.25C230.185,157.105,333.439,100,450,100
    c116.561,0,219.814,57.105,283.438,144.813l87-50.25C739.22,77.047,603.558,0,450,0z" />
  <path id="Blue_path_left" fill="#069" d="M32.188,282.75C11.448,334.467,0,390.9,0,450c0,231.504,175.098,422.357,400,447.25
    V796.375C230.471,772.078,100,626.216,100,450c0-40.892,7.03-80.136,19.938-116.625L32.188,282.75z" />
  <path id="Blue_path_right" fill="#069" d="M867.813,282.75l-87.75,50.625C792.969,369.864,800,409.108,800,450
    c0,176.215-130.471,322.078-300,346.375V897.25C724.903,872.357,900,681.504,900,450C900,390.9,888.551,334.467,867.813,282.75z" />
</svg>