<?xml version="1.0" encoding="UTF-8" standalone="no"?>
<!-- Created with Inkscape (http://www.inkscape.org/) -->

<svg
   xmlns:dc="http://purl.org/dc/elements/1.1/"
   xmlns:cc="http://creativecommons.org/ns#"
   xmlns:rdf="http://www.w3.org/1999/02/22-rdf-syntax-ns#"
   xmlns:svg="http://www.w3.org/2000/svg"
   xmlns="http://www.w3.org/2000/svg"
   xmlns:xlink="http://www.w3.org/1999/xlink"
   xmlns:sodipodi="http://sodipodi.sourceforge.net/DTD/sodipodi-0.dtd"
   xmlns:inkscape="http://www.inkscape.org/namespaces/inkscape"
   width="122"
   height="117"
   id="svg2047"
   sodipodi:version="0.32"
   inkscape:version="0.47 r22583"
   version="1.0"
   sodipodi:docname="WiktionaryPl_nodesc.svg">
  <defs
     id="defs3">
    <inkscape:perspective
       sodipodi:type="inkscape:persp3d"
       inkscape:vp_x="0 : 236.92857 : 1"
       inkscape:vp_y="0 : 1000 : 0"
       inkscape:vp_z="391 : 236.92857 : 1"
       inkscape:persp3d-origin="195.5 : 157.95238 : 1"
       id="perspective3038" />
    <linearGradient
       id="linearGradient3525">
      <stop
         style="stop-color:#000000;stop-opacity:1;"
         offset="0"
         id="stop3527" />
      <stop
         style="stop-color:#000000;stop-opacity:1;"
         offset="1"
         id="stop3529" />
    </linearGradient>
    <linearGradient
       id="linearGradient3446">
      <stop
         style="stop-color:#f4e3ca;stop-opacity:1;"
         offset="0"
         id="stop3448" />
      <stop
         style="stop-color:#e9cc9d;stop-opacity:1;"
         offset="1"
         id="stop3450" />
    </linearGradient>
    <linearGradient
       id="linearGradient3033">
      <stop
         style="stop-color:#557567;stop-opacity:1;"
         offset="0"
         id="stop3035" />
      <stop
         style="stop-color:#002d17;stop-opacity:1;"
         offset="1"
         id="stop3037" />
    </linearGradient>
    <linearGradient
       id="linearGradient3025">
      <stop
         style="stop-color:#4aaf6d;stop-opacity:1;"
         offset="0"
         id="stop3027" />
      <stop
         style="stop-color:#6af297;stop-opacity:1;"
         offset="1"
         id="stop3029" />
    </linearGradient>
    <linearGradient
       id="linearGradient2959">
      <stop
         id="stop2961"
         offset="0"
         style="stop-color:#5500af;stop-opacity:1;" />
      <stop
         id="stop2963"
         offset="1"
         style="stop-color:#000052;stop-opacity:1;" />
    </linearGradient>
    <linearGradient
       id="linearGradient2951">
      <stop
         id="stop2953"
         offset="0"
         style="stop-color:#4aafff;stop-opacity:1;" />
      <stop
         id="stop2955"
         offset="1"
         style="stop-color:#7fe5e5;stop-opacity:1;" />
    </linearGradient>
    <linearGradient
       id="linearGradient2925">
      <stop
         style="stop-color:#fa2f52;stop-opacity:1;"
         offset="0"
         id="stop2927" />
      <stop
         style="stop-color:#f57d5a;stop-opacity:1;"
         offset="1"
         id="stop2929" />
    </linearGradient>
    <linearGradient
       id="linearGradient2917">
      <stop
         style="stop-color:#ff0000;stop-opacity:1;"
         offset="0"
         id="stop2919" />
      <stop
         style="stop-color:#a70000;stop-opacity:1;"
         offset="1"
         id="stop2921" />
    </linearGradient>
    <linearGradient
       id="linearGradient1977">
      <stop
         style="stop-color:#efefbd;stop-opacity:1;"
         offset="0"
         id="stop1979" />
      <stop
         style="stop-color:#d2c595;stop-opacity:1;"
         offset="1"
         id="stop1981" />
    </linearGradient>
    <linearGradient
       inkscape:collect="always"
       xlink:href="#linearGradient2917"
       id="linearGradient2923"
       x1="27.14286"
       y1="122.6041"
       x2="171.42857"
       y2="125.82186"
       gradientUnits="userSpaceOnUse" />
    <linearGradient
       inkscape:collect="always"
       xlink:href="#linearGradient2925"
       id="linearGradient2931"
       x1="52.857136"
       y1="62.271225"
       x2="131.42856"
       y2="150.75945"
       gradientUnits="userSpaceOnUse" />
    <linearGradient
       inkscape:collect="always"
       xlink:href="#linearGradient2917"
       id="linearGradient2947"
       gradientUnits="userSpaceOnUse"
       x1="27.14286"
       y1="122.6041"
       x2="171.42857"
       y2="125.82186" />
    <linearGradient
       inkscape:collect="always"
       xlink:href="#linearGradient2951"
       id="linearGradient2949"
       gradientUnits="userSpaceOnUse"
       x1="52.857136"
       y1="62.271225"
       x2="131.42856"
       y2="150.75945" />
    <linearGradient
       inkscape:collect="always"
       xlink:href="#linearGradient2959"
       id="linearGradient2965"
       gradientUnits="userSpaceOnUse"
       x1="27.14286"
       y1="122.6041"
       x2="171.42857"
       y2="125.82186" />
    <linearGradient
       inkscape:collect="always"
       xlink:href="#linearGradient2959"
       id="linearGradient2971"
       gradientUnits="userSpaceOnUse"
       x1="27.14286"
       y1="122.6041"
       x2="171.42857"
       y2="125.82186" />
    <linearGradient
       inkscape:collect="always"
       xlink:href="#linearGradient2951"
       id="linearGradient2973"
       gradientUnits="userSpaceOnUse"
       x1="52.857136"
       y1="62.271225"
       x2="131.42856"
       y2="150.75945" />
    <linearGradient
       inkscape:collect="always"
       xlink:href="#linearGradient2959"
       id="linearGradient3019"
       gradientUnits="userSpaceOnUse"
       x1="27.14286"
       y1="122.6041"
       x2="171.42857"
       y2="125.82186" />
    <linearGradient
       inkscape:collect="always"
       xlink:href="#linearGradient2951"
       id="linearGradient3021"
       gradientUnits="userSpaceOnUse"
       x1="52.857136"
       y1="62.271225"
       x2="131.42856"
       y2="150.75945" />
    <linearGradient
       inkscape:collect="always"
       xlink:href="#linearGradient3525"
       id="linearGradient3071"
       x1="366.08591"
       y1="184.23257"
       x2="270.37161"
       y2="86.036026"
       gradientUnits="userSpaceOnUse"
       gradientTransform="matrix(0.16915045,0.16019543,-0.16805025,0.16344834,160.20735,367.09998)" />
    <linearGradient
       inkscape:collect="always"
       xlink:href="#linearGradient3525"
       id="linearGradient3087"
       x1="173.22878"
       y1="524.23254"
       x2="114.65734"
       y2="451.37543"
       gradientUnits="userSpaceOnUse"
       gradientTransform="matrix(0.57853,0.353675,-0.35104,0.582872,520.7052,-207.5038)" />
    <linearGradient
       inkscape:collect="always"
       xlink:href="#linearGradient3525"
       id="linearGradient3101"
       x1="196.08591"
       y1="365.66113"
       x2="95.290253"
       y2="255.5688"
       gradientUnits="userSpaceOnUse"
       gradientTransform="matrix(0.21604238,0.04739991,-0.04627275,0.21090358,205.42597,398.53913)" />
    <linearGradient
       inkscape:collect="always"
       xlink:href="#linearGradient2917"
       id="linearGradient3103"
       x1="370.37161"
       y1="344.23257"
       x2="283.22876"
       y2="259.17615"
       gradientUnits="userSpaceOnUse"
       gradientTransform="matrix(0.21611755,0.10581115,-0.10163457,0.22416299,145.87479,373.92793)" />
    <linearGradient
       inkscape:collect="always"
       xlink:href="#linearGradient3525"
       id="linearGradient3117"
       x1="536.08594"
       y1="521.37543"
       x2="439.24854"
       y2="434.30499"
       gradientUnits="userSpaceOnUse"
       gradientTransform="matrix(0.17138078,0.1989316,-0.17534929,0.17589678,159.6507,328.64598)" />
    <linearGradient
       inkscape:collect="always"
       xlink:href="#linearGradient3525"
       id="linearGradient3125"
       x1="533.22876"
       y1="185.66115"
       x2="454.65735"
       y2="89.025398"
       gradientUnits="userSpaceOnUse"
       gradientTransform="matrix(0.22974909,0.02067928,-0.02088456,0.22749107,37.811348,431.82481)" />
    <linearGradient
       inkscape:collect="always"
       xlink:href="#linearGradient3446"
       id="linearGradient3452"
       x1="715.71844"
       y1="299.56409"
       x2="650.84174"
       y2="230.34946"
       gradientUnits="userSpaceOnUse"
       gradientTransform="matrix(0.34805412,0,0,0.34805255,-135.95927,362.06241)" />
    <linearGradient
       inkscape:collect="always"
       xlink:href="#linearGradient3446"
       id="linearGradient3460"
       x1="791.06329"
       y1="-355.92725"
       x2="723.2616"
       y2="-358.38074"
       gradientUnits="userSpaceOnUse"
       gradientTransform="matrix(0.3480535,0,0,0.34805314,159.62335,349.53926)" />
    <linearGradient
       inkscape:collect="always"
       xlink:href="#linearGradient3446"
       id="linearGradient3474"
       x1="175.47467"
       y1="955.26855"
       x2="218.35574"
       y2="880.65918"
       gradientUnits="userSpaceOnUse"
       gradientTransform="matrix(0.34805278,0,0,0.34805394,-380.39025,66.643591)" />
    <linearGradient
       inkscape:collect="always"
       xlink:href="#linearGradient3446"
       id="linearGradient3482"
       x1="758.90216"
       y1="200.78854"
       x2="693.67474"
       y2="145.09717"
       gradientUnits="userSpaceOnUse"
       gradientTransform="matrix(0.3480541,0,0,0.34805253,-32.056816,384.54192)" />
    <linearGradient
       inkscape:collect="always"
       xlink:href="#linearGradient3446"
       id="linearGradient3490"
       x1="870.85938"
       y1="-140.09358"
       x2="795.29053"
       y2="-169.7764"
       gradientUnits="userSpaceOnUse"
       gradientTransform="matrix(0.34805375,0,0,0.34805297,109.80395,368.61888)" />
    <linearGradient
       inkscape:collect="always"
       xlink:href="#linearGradient3446"
       id="linearGradient3498"
       x1="965.19623"
       y1="159.7126"
       x2="901.40399"
       y2="103.7599"
       gradientUnits="userSpaceOnUse"
       gradientTransform="matrix(0.34805413,0,0,0.34805254,-32.218904,384.52993)" />
    <linearGradient
       inkscape:collect="always"
       xlink:href="#linearGradient3446"
       id="linearGradient3506"
       x1="412.31854"
       y1="743.88672"
       x2="388.38828"
       y2="683.20331"
       gradientUnits="userSpaceOnUse"
       gradientTransform="matrix(0.34805375,0,0,0.34805299,-277.90951,269.83536)" />
    <linearGradient
       inkscape:collect="always"
       xlink:href="#linearGradient3446"
       id="linearGradient3514"
       x1="805.99457"
       y1="514.12738"
       x2="741.84326"
       y2="450.75146"
       gradientUnits="userSpaceOnUse"
       gradientTransform="matrix(0.34805412,0,0,0.34805255,-135.95927,362.06241)" />
    <linearGradient
       inkscape:collect="always"
       xlink:href="#linearGradient3446"
       id="linearGradient3522"
       x1="974.9718"
       y1="357.18353"
       x2="909.49103"
       y2="305.17203"
       gradientUnits="userSpaceOnUse"
       gradientTransform="matrix(0.34805418,0,0,0.34805254,-72.99251,379.2793)" />
    <linearGradient
       inkscape:collect="always"
       xlink:href="#linearGradient3525"
       id="linearGradient3531"
       x1="904.65735"
       y1="359.94687"
       x2="947.51447"
       y2="414.23257"
       gradientUnits="userSpaceOnUse"
       gradientTransform="matrix(0.30213076,-0.01398959,0.01398964,0.30212957,-55.096636,404.08968)" />
    <linearGradient
       inkscape:collect="always"
       xlink:href="#linearGradient3525"
       id="linearGradient3106"
       x1="1090.1083"
       y1="429.67673"
       x2="897.16919"
       y2="230.67667"
       gradientUnits="userSpaceOnUse"
       gradientTransform="matrix(0.09714329,0,0,0.10248343,99.696256,478.74865)" />
    <linearGradient
       inkscape:collect="always"
       xlink:href="#linearGradient3525"
       id="linearGradient4929"
       x1="-190.76511"
       y1="284.21475"
       x2="-514.01392"
       y2="-144.08994"
       gradientUnits="userSpaceOnUse"
       gradientTransform="matrix(0.03861869,-0.0134188,0.01325277,0.04027562,167.81382,430.01135)" />
    <linearGradient
       inkscape:collect="always"
       xlink:href="#linearGradient3525"
       id="linearGradient2865"
       gradientUnits="userSpaceOnUse"
       x1="24.404194"
       y1="365.39426"
       x2="14.581494"
       y2="357.17325"
       gradientTransform="matrix(1.928972,1.155467,-1.4494547,2.0911734,713.01929,-339.99986)" />
  </defs>
  <sodipodi:namedview
     inkscape:document-units="px"
     id="base"
     pagecolor="#000000"
     bordercolor="#666666"
     borderopacity="1.0"
     inkscape:pageopacity="0"
     inkscape:pageshadow="2"
     inkscape:zoom="2.2344558"
     inkscape:cx="167.41865"
     inkscape:cy="43.05703"
     inkscape:current-layer="layer1"
     inkscape:window-width="1440"
     inkscape:window-height="826"
     inkscape:window-x="0"
     inkscape:window-y="25"
     showguides="true"
     inkscape:guide-bbox="true"
     showgrid="false"
     inkscape:window-maximized="1"
     inkscape:snap-bbox="true"
     inkscape:snap-global="false" />
  <metadata
     id="metadata4">
    <rdf:RDF>
      <cc:Work
         rdf:about="">
        <dc:format>image/svg+xml</dc:format>
        <dc:type
           rdf:resource="http://purl.org/dc/dcmitype/StillImage" />
        <dc:title />
      </cc:Work>
    </rdf:RDF>
  </metadata>
  <g
     inkscape:label="Layer 1"
     inkscape:groupmode="layer"
     id="layer1"
     transform="translate(-128.4431,-417.73258)"
     style="display:inline">
    <rect
       style="fill:#e7c78d;fill-opacity:1;fill-rule:nonzero;stroke:#000000;stroke-width:0.3768701;stroke-linecap:round;stroke-linejoin:round;stroke-miterlimit:4;stroke-opacity:1;stroke-dasharray:none;stroke-dashoffset:0"
       id="rect2525"
       width="31.281826"
       height="31.161755"
       x="84.837784"
       y="440.79861"
       transform="matrix(0.9936917,-0.1121464,0.12121252,0.99262658,0,0)"
       rx="3.1879671"
       ry="4.2736912" />
    <rect
       style="fill:#e7c78d;fill-opacity:1;fill-rule:nonzero;stroke:#000000;stroke-width:0.37687019;stroke-linecap:round;stroke-linejoin:round;stroke-miterlimit:4;stroke-opacity:1;stroke-dasharray:none;stroke-dashoffset:0"
       id="rect3412"
       width="31.281775"
       height="31.161774"
       x="408.71738"
       y="209.96007"
       transform="matrix(0.78086328,0.62470196,-0.61755281,0.78652942,0,0)"
       rx="3.1879625"
       ry="4.273695" />
    <rect
       style="fill:#e7c78d;fill-opacity:1;fill-rule:nonzero;stroke:#000000;stroke-width:0.37686777;stroke-linecap:round;stroke-linejoin:round;stroke-miterlimit:4;stroke-opacity:1;stroke-dasharray:none;stroke-dashoffset:0"
       id="rect3414"
       width="31.281557"
       height="31.161657"
       x="-331.05557"
       y="372.38461"
       transform="matrix(0.40092576,-0.91611055,0.91973301,0.3925445,0,0)"
       rx="3.1879361"
       ry="4.2736773" />
    <rect
       style="fill:#e7c78d;fill-opacity:1;fill-rule:nonzero;stroke:#000000;stroke-width:0.37686831;stroke-linecap:round;stroke-linejoin:round;stroke-miterlimit:4;stroke-opacity:1;stroke-dasharray:none;stroke-dashoffset:0"
       id="rect3416"
       width="31.281569"
       height="31.16168"
       x="203.60072"
       y="430.9111"
       transform="matrix(0.98646461,0.16397431,-0.15496574,0.98791984,0,0)"
       rx="3.1879399"
       ry="4.2736802" />
    <rect
       style="fill:#e7c78d;fill-opacity:1;fill-rule:nonzero;stroke:#000000;stroke-width:0.37686744;stroke-linecap:round;stroke-linejoin:round;stroke-miterlimit:4;stroke-opacity:1;stroke-dasharray:none;stroke-dashoffset:0"
       id="rect3418"
       width="31.281569"
       height="31.161606"
       x="384.93875"
       y="301.50345"
       transform="matrix(0.8593985,0.51130638,-0.50344503,0.86402726,0,0)"
       rx="3.1879401"
       ry="4.2736664" />
    <rect
       style="fill:#e7c78d;fill-opacity:1;fill-rule:nonzero;stroke:#000000;stroke-width:0.37686837;stroke-linecap:round;stroke-linejoin:round;stroke-miterlimit:4;stroke-opacity:1;stroke-dasharray:none;stroke-dashoffset:0"
       id="rect3420"
       width="31.281597"
       height="31.161669"
       x="277.24701"
       y="416.517"
       transform="matrix(0.9865335,0.1635593,-0.15454974,0.98798501,0,0)"
       rx="3.1879425"
       ry="4.2736745" />
    <rect
       style="fill:#e7c78d;fill-opacity:1;fill-rule:nonzero;stroke:#000000;stroke-width:0.37686932;stroke-linecap:round;stroke-linejoin:round;stroke-miterlimit:4;stroke-opacity:1;stroke-dasharray:none;stroke-dashoffset:0"
       id="rect3422"
       width="31.281736"
       height="31.16172"
       x="-156.64494"
       y="504.61285"
       transform="matrix(0.84890709,-0.5285421,0.53627091,0.84404592,0,0)"
       rx="3.1879575"
       ry="4.2736855" />
    <rect
       style="fill:#e7c78d;fill-opacity:1;fill-rule:nonzero;stroke:#000000;stroke-width:0.3768703;stroke-linecap:round;stroke-linejoin:round;stroke-miterlimit:4;stroke-opacity:1;stroke-dasharray:none;stroke-dashoffset:0"
       id="rect3424"
       width="31.281845"
       height="31.161777"
       x="116.11094"
       y="517.71564"
       transform="matrix(0.9936917,-0.1121464,0.12121252,0.99262658,0,0)"
       rx="3.1879699"
       ry="4.273694"
       inkscape:transform-center-x="-19.88878"
       inkscape:transform-center-y="-9.198548" />
    <rect
       style="fill:#e7c78d;fill-opacity:1;fill-rule:nonzero;stroke:#000000;stroke-width:0.37686965;stroke-linecap:round;stroke-linejoin:round;stroke-miterlimit:4;stroke-opacity:1;stroke-dasharray:none;stroke-dashoffset:0"
       id="rect3426"
       width="31.281809"
       height="31.161724"
       x="237.70898"
       y="481.7962"
       transform="matrix(0.99834686,0.05747656,-0.04836256,0.99882985,0,0)"
       rx="3.1879656"
       ry="4.273685" />
    <rect
       style="fill:url(#linearGradient3452);fill-opacity:1;fill-rule:nonzero;stroke:#000000;stroke-width:0.3768703;stroke-linecap:round;stroke-linejoin:round;stroke-miterlimit:4;stroke-opacity:1;stroke-dasharray:none;stroke-dashoffset:0"
       id="rect3428"
       width="31.281845"
       height="31.161777"
       x="85.398582"
       y="438.09467"
       transform="matrix(0.9936917,-0.1121464,0.12121252,0.99262658,0,0)"
       rx="3.1879699"
       ry="4.273694" />
    <rect
       style="fill:url(#linearGradient3460);fill-opacity:1;fill-rule:nonzero;stroke:#000000;stroke-width:0.37687033;stroke-linecap:round;stroke-linejoin:round;stroke-miterlimit:4;stroke-opacity:1;stroke-dasharray:none;stroke-dashoffset:0"
       id="rect3430"
       width="31.281794"
       height="31.161777"
       x="407.20145"
       y="207.67168"
       transform="matrix(0.78086328,0.62470196,-0.61755281,0.78652942,0,0)"
       rx="3.1879649"
       ry="4.2736964" />
    <rect
       style="fill:url(#linearGradient3474);fill-opacity:1;fill-rule:nonzero;stroke:#000000;stroke-width:0.37686753;stroke-linecap:round;stroke-linejoin:round;stroke-miterlimit:4;stroke-opacity:1;stroke-dasharray:none;stroke-dashoffset:0"
       id="rect3432"
       width="31.281538"
       height="31.161636"
       x="-328.43912"
       y="371.49313"
       transform="matrix(0.40092576,-0.91611055,0.91973301,0.3925445,0,0)"
       rx="3.1879337"
       ry="4.2736745" />
    <rect
       style="fill:url(#linearGradient3482);fill-opacity:1;fill-rule:nonzero;stroke:#000000;stroke-width:0.37686816;stroke-linecap:round;stroke-linejoin:round;stroke-miterlimit:4;stroke-opacity:1;stroke-dasharray:none;stroke-dashoffset:0"
       id="rect3434"
       width="31.28154"
       height="31.16168"
       x="203.40132"
       y="428.16367"
       transform="matrix(0.98646461,0.16397431,-0.15496574,0.98791984,0,0)"
       rx="3.1879363"
       ry="4.2736802" />
    <rect
       style="fill:url(#linearGradient3490);fill-opacity:1;fill-rule:nonzero;stroke:#000000;stroke-width:0.37686712;stroke-linecap:round;stroke-linejoin:round;stroke-miterlimit:4;stroke-opacity:1;stroke-dasharray:none;stroke-dashoffset:0"
       id="rect3436"
       width="31.281544"
       height="31.161583"
       x="383.75363"
       y="299.02548"
       transform="matrix(0.8593985,0.51130638,-0.50344503,0.86402726,0,0)"
       rx="3.1879375"
       ry="4.273663" />
    <rect
       style="fill:url(#linearGradient3498);fill-opacity:1;fill-rule:nonzero;stroke:#000000;stroke-width:0.37686819;stroke-linecap:round;stroke-linejoin:round;stroke-miterlimit:4;stroke-opacity:1;stroke-dasharray:none;stroke-dashoffset:0"
       id="rect3438"
       width="31.281572"
       height="31.161665"
       x="277.04877"
       y="413.76944"
       transform="matrix(0.9865335,0.1635593,-0.15454974,0.98798501,0,0)"
       rx="3.1879399"
       ry="4.2736731" />
    <rect
       style="fill:url(#linearGradient3506);fill-opacity:1;fill-rule:nonzero;stroke:#000000;stroke-width:0.37686932;stroke-linecap:round;stroke-linejoin:round;stroke-miterlimit:4;stroke-opacity:1;stroke-dasharray:none;stroke-dashoffset:0"
       id="rect3440"
       width="31.28174"
       height="31.161715"
       x="-154.97824"
       y="502.40201"
       transform="matrix(0.84890709,-0.5285421,0.53627091,0.84404592,0,0)"
       rx="3.1879582"
       ry="4.273684" />
    <rect
       style="fill:url(#linearGradient3514);fill-opacity:1;fill-rule:nonzero;stroke:#000000;stroke-width:0.3768706;stroke-linecap:round;stroke-linejoin:round;stroke-miterlimit:4;stroke-opacity:1;stroke-dasharray:none;stroke-dashoffset:0"
       id="rect3442"
       width="31.281866"
       height="31.161798"
       x="116.67167"
       y="515.01166"
       transform="matrix(0.9936917,-0.1121464,0.12121252,0.99262658,0,0)"
       rx="3.1879723"
       ry="4.2736974"
       inkscape:transform-center-x="-19.888761"
       inkscape:transform-center-y="-9.1985598" />
    <rect
       style="fill:url(#linearGradient3522);fill-opacity:1;fill-rule:nonzero;stroke:#000000;stroke-width:0.37686971;stroke-linecap:round;stroke-linejoin:round;stroke-miterlimit:4;stroke-opacity:1;stroke-dasharray:none;stroke-dashoffset:0"
       id="rect3444"
       width="31.28182"
       height="31.161736"
       x="237.80527"
       y="479.04053"
       transform="matrix(0.99834686,0.05747654,-0.04836254,0.99882985,0,0)"
       rx="3.1879668"
       ry="4.2736864" />
    <path
       style="font-size:8.35136795px;font-style:normal;font-variant:normal;font-weight:normal;font-stretch:normal;text-align:start;line-height:125%;writing-mode:lr-tb;text-anchor:start;fill:url(#linearGradient3531);fill-opacity:1;stroke:#000000;stroke-width:0.29161566;stroke-miterlimit:4;stroke-opacity:1;font-family:Times New Roman"
       d="m 231.93167,519.23338 -9.62123,-0.56652 c -0.22758,-1.97326 -0.49474,-3.74524 -0.80156,-5.31589 -0.43126,-2.25245 -0.60934,-4.07646 -0.53421,-5.4719 0.10179,-1.89019 0.42885,-3.58257 0.98125,-5.07725 -1.409,-0.5538 -2.07968,-1.45869 -2.01209,-2.71461 0.0641,-1.19246 0.40877,-2.24756 1.0337,-3.16523 l 0.46471,0.0273 c 0.0895,0.47615 0.24957,0.81645 0.48028,1.0209 0.23073,0.20454 0.72571,0.41817 1.4849,0.64105 1.1331,0.33396 1.65389,1.35091 1.56237,3.05081 -0.0233,0.43132 -0.0761,0.77187 -0.1586,1.02149 -0.74867,0.22321 -1.43286,0.31653 -2.05246,0.28004 -0.33428,1.29116 -0.54476,2.74225 -0.6315,4.35333 -0.11129,2.06785 0.42103,4.58083 1.59701,7.53887 l 0.53459,0.0123 c 1.73122,-3.07962 3.32296,-6.98826 4.77514,-11.726 -1.3914,-0.66732 -2.05297,-1.63528 -1.98465,-2.9039 0.0587,-1.09098 0.40423,-2.05692 1.03657,-2.89779 l 0.46469,0.0273 c 0.0994,0.71855 0.39784,1.16244 0.89523,1.33171 l 1.06998,0.33024 c 1.14319,0.36002 1.67548,1.26948 1.597,2.72836 -0.028,0.52013 -0.10392,0.96744 -0.22765,1.34192 -0.52592,0.14725 -1.17328,0.19822 -1.94204,0.15289 -1.09485,4.30068 -2.55391,8.20441 -4.37722,11.71125 l 5.47325,0.32229 c 0.63162,-1.89715 2.2405,-4.62764 4.82659,-8.19143 0.65799,-0.89025 1.00439,-1.65888 1.03923,-2.30589 0.0355,-0.65963 -0.25038,-1.12192 -0.85772,-1.38674 l -0.21965,-0.0892 c -1.12422,-0.49889 -1.65765,-1.28118 -1.60022,-2.34682 0.0648,-1.2051 0.456,-2.27017 1.1734,-3.19514 l 0.44749,0.0263 c 0.0476,0.61365 0.31826,1.03683 0.81225,1.26954 l 0.94438,0.41832 c 1.06748,0.48281 1.56575,1.38389 1.49471,2.70323 -0.0616,1.14176 -0.67513,2.59779 -1.84089,4.36804 -1.16578,1.77032 -2.21498,3.72559 -3.14743,5.86595 -0.93251,2.14038 -1.65902,4.41062 -2.1796,6.81068 l 0,0 z"
       id="flowRoot2762" />
    <path
       style="font-size:8.35136795px;font-style:normal;font-variant:normal;font-weight:normal;font-stretch:normal;text-align:start;line-height:125%;writing-mode:lr-tb;text-anchor:start;fill:url(#linearGradient3117);fill-opacity:1;stroke:#000000;stroke-width:0.2562499;stroke-miterlimit:4;stroke-opacity:1;font-family:Times New Roman"
       d="m 149.36135,512.81248 0.43663,-0.29189 c 0.59251,0.91764 1.10766,1.41115 1.54547,1.48054 0.43784,0.0694 1.18383,-0.24836 2.23802,-0.95311 l 4.89722,-3.274 -0.17376,-0.31833 c -0.16346,-0.27349 -0.35327,-0.46213 -0.56942,-0.56587 -0.21617,-0.10381 -0.44674,-0.14875 -0.69172,-0.13498 -0.24501,0.0137 -1.48566,0.15787 -3.72194,0.43224 l -5.69663,0.72056 -2.28611,-3.82507 0.4366,-0.2919 c 0.83477,0.97295 1.77084,1.47992 2.80827,1.52081 1.03743,0.041 3.11559,-0.1019 6.23455,-0.4284 1.13924,-0.12029 1.99261,-0.0648 2.56008,0.16604 0.081,-0.67488 0.28716,-1.28338 0.61834,-1.82546 0.33113,-0.54206 1.05666,-1.45127 2.17662,-2.72763 0.88093,-1.01307 1.40392,-1.68084 1.56906,-2.00331 0.1651,-0.32245 0.17037,-0.61304 0.0158,-0.87172 -0.14581,-0.24394 -0.45378,-0.48288 -0.9239,-0.71684 -0.45348,-0.22439 -0.75973,-0.46967 -0.91873,-0.73579 -0.18556,-0.31044 -0.24071,-0.63303 -0.16553,-0.96779 0.0752,-0.33475 0.25832,-0.59941 0.5494,-0.79402 0.35401,-0.23667 0.76343,-0.29313 1.22827,-0.16941 0.46482,0.12373 0.87833,0.48864 1.24061,1.09472 0.35337,0.59133 0.50906,1.2295 0.46708,1.91447 -0.042,0.68499 -0.21978,1.27193 -0.53317,1.76074 -0.31344,0.48886 -0.9834,1.32986 -2.00992,2.52307 -0.93062,1.07735 -1.53674,1.8317 -1.81837,2.26311 -0.28169,0.43141 -0.42675,0.87494 -0.43519,1.33057 -0.009,0.45563 0.13754,0.93476 0.43796,1.4374 0.10155,0.16999 0.25991,0.37966 0.47503,0.62899 l 4.40156,-2.94265 c 1.05413,-0.70479 1.64554,-1.28118 1.77414,-1.72922 0.12856,-0.44803 -0.0718,-1.15196 -0.60146,-2.11171 l 0.43662,-0.2919 3.86982,6.4749 -0.43662,0.29192 c -0.58811,-0.91029 -1.09995,-1.39825 -1.53556,-1.46393 -0.43563,-0.0656 -1.18055,0.25389 -2.23469,0.95867 l -4.40157,2.94264 c 0.0764,0.23849 0.1677,0.44644 0.27375,0.62385 0.33132,0.55437 0.69226,0.92338 1.08283,1.10712 0.39054,0.18371 0.82458,0.23751 1.30209,0.1614 0.47749,-0.0762 1.38991,-0.33186 2.73731,-0.76708 1.44715,-0.47098 2.44474,-0.74997 2.9928,-0.83704 0.54798,-0.087 1.12745,-0.007 1.73843,0.24208 0.6109,0.24846 1.09527,0.67203 1.45314,1.27075 0.34453,0.57653 0.48028,1.11681 0.4072,1.62089 -0.0731,0.50403 -0.29851,0.88227 -0.67608,1.13475 -0.29111,0.19457 -0.59464,0.25784 -0.91055,0.18979 -0.31596,-0.0681 -0.56893,-0.26108 -0.75885,-0.57891 -0.15024,-0.25131 -0.22833,-0.64909 -0.23428,-1.19337 -0.002,-0.55694 -0.0789,-0.96104 -0.22913,-1.21235 -0.14576,-0.24392 -0.40076,-0.35274 -0.76491,-0.32654 -0.36423,0.0263 -1.14996,0.23601 -2.3572,0.62937 -1.58288,0.52026 -2.67374,0.82284 -3.27262,0.90771 -0.59892,0.0848 -1.20393,0.0212 -1.81513,-0.19082 -0.0667,0.55153 -0.21715,1.07363 -0.45118,1.56632 -0.23408,0.49266 -0.89905,1.71049 -1.99489,3.6535 -1.05157,1.85128 -1.64189,3.14333 -1.77094,3.87621 -0.12904,0.7328 -0.0244,1.57574 0.31403,2.52883 l -0.43663,0.2919 -2.2861,-3.82504 c 0.15152,-0.22548 0.94814,-1.5546 2.38988,-3.98743 l 2.3766,-4.0096 c 0.15056,-0.24549 0.28027,-0.54427 0.38915,-0.89638 0.10882,-0.35208 0.0462,-0.72398 -0.18792,-1.11572 -0.0486,-0.0813 -0.10994,-0.17479 -0.18405,-0.28039 l -4.8972,3.27402 c -1.05419,0.70474 -1.64667,1.27933 -1.77749,1.72367 -0.13078,0.44433 0.0663,1.14268 0.59153,2.09506 l -0.43662,0.29191 -3.86981,-6.47492 z"
       id="flowRoot3743" />
    <path
       style="font-size:147.8637085px;font-style:normal;font-weight:normal;fill:url(#linearGradient3071);fill-opacity:1;stroke:#000000;stroke-width:0.29199776;stroke-linecap:butt;stroke-linejoin:miter;stroke-miterlimit:4;stroke-opacity:1;font-family:Bitstream Vera Sans"
       d="m 206.26479,442.20663 -3.54057,-2.93756 -12.45528,13.8032 -2.40595,-1.99621 12.45527,-13.80319 -1.70878,-1.41774 1.71797,-1.90388 7.6553,6.3515 -1.71796,1.90388 z m -11.86,-4.95024 c -1.33145,1.47551 -2.91144,2.3876 -4.73999,2.73622 -1.82856,0.34865 -3.66358,0.1128 -5.50502,-0.70756 l 0.63208,8.01526 -3.07926,-0.0579 -1.16621,-14.28464 3.09,0.046 0.24264,2.98956 c 0.0117,0.093 0.13149,0.23397 0.35934,0.42298 1.12094,0.93004 2.52068,1.22441 4.19924,0.88306 1.51256,-0.29869 2.72695,-0.95573 3.64322,-1.97113 0.70867,-0.78536 1.07167,-1.78812 1.08906,-3.00833 0.0219,-1.31353 -0.40917,-2.33702 -1.29315,-3.07047 -0.5833,-0.48393 -1.18638,-0.76927 -1.80925,-0.85607 -0.69712,-0.0929 -1.27115,0.11063 -1.72209,0.61038 -0.64426,0.71397 -0.48793,1.46792 0.46901,2.26185 0.21869,0.18147 0.47973,0.34256 0.78308,0.48324 l -1.6106,1.78491 c -0.43743,-0.16871 -0.94777,-0.49502 -1.53102,-0.97895 -0.9296,-0.77126 -1.40845,-1.68878 -1.43662,-2.75254 -0.0346,-0.98592 0.31306,-1.88346 1.04321,-2.69261 0.93772,-1.0392 2.15932,-1.50994 3.66481,-1.41227 1.41303,0.0765 2.7165,0.61006 3.91038,1.60057 1.75889,1.45934 2.68242,3.12033 2.77062,4.98298 0.0673,1.76212 -0.60049,3.42061 -2.00348,4.97543 l 0,0 z"
       id="text3751" />
    <path
       style="font-size:8.35136795px;font-style:normal;font-variant:normal;font-weight:normal;font-stretch:normal;text-align:start;line-height:125%;writing-mode:lr-tb;text-anchor:start;fill:url(#linearGradient3103);fill-opacity:1;stroke:#000000;stroke-width:0.28353128;stroke-miterlimit:4;stroke-opacity:1;font-family:Times New Roman"
       d="m 201.10416,475.12971 -0.29736,0.48425 c -0.43879,-0.27106 -0.84569,-0.40808 -1.22068,-0.41108 -0.37502,-0.003 -0.82601,0.14563 -1.35296,0.4459 -0.35317,0.20311 -1.06131,0.77051 -2.12455,1.70232 l -13.47868,11.40469 -0.49671,-0.30683 3.13097,-13.71723 -10.78058,8.99167 -0.44705,-0.27618 4.04532,-17.82793 c 0.30257,-1.32946 0.4658,-2.1252 0.48972,-2.38727 0.038,-0.43382 -0.0362,-0.81963 -0.2227,-1.15749 -0.18649,-0.33786 -0.52399,-0.65767 -1.01241,-0.95941 l 0.29736,-0.48423 6.23391,3.85098 -0.29738,0.48424 -0.29801,-0.1841 c -0.43879,-0.27107 -0.83839,-0.37347 -1.19876,-0.30729 -0.36043,0.0662 -0.63169,0.24762 -0.81384,0.54427 -0.18757,0.30536 -0.43678,1.12027 -0.74761,2.44462 l -2.80064,12.00776 7.99411,-6.7415 0.41951,-1.79881 0.334,-1.43643 c 0.0941,-0.54366 0.13524,-1.04773 0.12361,-1.51225 -0.006,-0.23226 -0.0526,-0.4537 -0.14018,-0.66429 -0.11051,-0.28489 -0.24785,-0.52617 -0.41193,-0.72386 -0.12516,-0.14948 -0.35746,-0.32911 -0.69688,-0.53877 l 0.29737,-0.48426 6.55681,4.05049 -0.29738,0.48424 -0.44703,-0.27616 c -0.46362,-0.2864 -0.86738,-0.39136 -1.21119,-0.31496 -0.34389,0.0764 -0.62564,0.29352 -0.84529,0.65122 -0.2733,0.44495 -0.56389,1.33654 -0.87181,2.67478 l -2.69468,11.63994 9.2077,-7.79706 c 1.02863,-0.85687 1.67153,-1.49471 1.92878,-1.91353 0.12318,-0.20066 0.17835,-0.42532 0.1655,-0.67397 -0.0128,-0.24864 -0.0889,-0.46412 -0.22821,-0.64644 -0.2396,-0.31649 -0.61191,-0.63073 -1.11687,-0.94268 l 0.29737,-0.48424 5.02933,3.10688 z"
       id="flowRoot3695" />
    <path
       style="font-size:8.35136795px;font-style:normal;font-variant:normal;font-weight:normal;font-stretch:normal;text-align:start;line-height:125%;writing-mode:lr-tb;text-anchor:start;fill:url(#linearGradient3101);fill-opacity:1;stroke:#000000;stroke-width:0.27316856;stroke-miterlimit:4;stroke-opacity:1;font-family:Times New Roman"
       d="m 233.23798,462.83701 -1.67541,1.85175 -1.63402,-1.91781 1.63712,-1.86385 1.67231,1.92991 z m 1.66971,3.4291 -1.67868,1.81818 -1.65952,-1.92593 1.63566,-1.8154 1.70254,1.92315 z m -3.3624,0.40637 -1.65789,1.84104 -1.66903,-1.89629 1.6324,-1.84906 1.69452,1.90431 z m 0.0627,13.35703 -1.00821,-0.31815 c -0.51052,-0.1611 -0.93325,-0.38419 -1.26818,-0.66924 -0.33496,-0.28503 -0.64545,-0.66834 -0.93146,-1.14992 -0.47757,0.26235 -0.87729,0.41341 -1.19917,0.45314 -0.45682,0.0514 -1.06812,-0.0436 -1.83387,-0.28522 l -1.5698,-0.49536 c -0.29098,0.90817 -0.76127,1.73262 -1.41079,2.47335 -0.84239,0.96241 -1.86573,1.61233 -3.06995,1.94975 -1.51327,0.42464 -3.21005,0.34029 -5.0904,-0.25308 -1.70168,-0.53699 -2.89278,-1.29327 -3.57324,-2.26886 -0.74342,-1.07159 -0.86366,-2.39219 -0.36076,-3.9618 0.27199,-0.84894 0.63653,-1.67955 1.09355,-2.4919 0.45703,-0.81232 0.97941,-1.60946 1.56721,-2.39137 0.35799,-0.474 0.94383,-1.19133 1.75758,-2.15198 l 0.42509,0.42763 c -1.05107,1.23361 -1.80358,2.22985 -2.25755,2.98879 -0.45398,0.75894 -0.79007,1.47899 -1.00831,2.1601 -0.39222,1.22412 -0.31384,2.27331 0.23517,3.14765 0.54897,0.87435 1.52113,1.53166 2.91651,1.972 1.63359,0.5155 3.19874,0.64528 4.69546,0.38932 1.86207,-0.3146 3.02875,-1.20732 3.50006,-2.67819 0.31627,-0.98722 0.45936,-1.97469 0.42924,-2.96245 -0.0223,-0.77875 -0.15597,-1.5601 -0.40128,-2.34406 l 2.03189,-2.7013 c 0.16604,0.94376 0.22602,1.75071 0.17991,2.42099 -0.0688,0.94568 -0.34674,2.17863 -0.83383,3.69888 l 1.56976,0.49538 c 0.80831,0.25506 1.42849,0.29315 1.86057,0.11427 0.37683,-0.15282 0.64751,-0.48587 0.812,-0.99923 0.0917,-0.28628 0.16932,-0.57969 0.23288,-0.88031 0.0636,-0.30061 0.12086,-0.63308 0.172,-0.99738 l 0.79518,-0.72735 -0.25601,1.50077 c -0.1228,1.02649 -0.0947,1.80163 0.084,2.32547 0.19699,0.58391 0.61457,0.97656 1.25274,1.17793 0.19566,0.0618 0.3696,0.0378 0.52186,-0.0718 0.15216,-0.10963 0.26309,-0.27297 0.33268,-0.49014 0.15816,-0.49358 0.19548,-1.06335 0.11204,-1.70926 -0.0629,-0.47637 -0.18953,-0.97287 -0.38,-1.48951 l 1.37225,-1.34417 c 0.15633,0.8863 0.23274,1.48111 0.2293,1.78434 -0.012,0.68098 -0.20794,1.61378 -0.58748,2.79836 l -1.13868,3.55383 z"
       id="flowRoot3683" />
    <path
       style="font-size:158.52603149px;font-style:normal;font-weight:normal;fill:url(#linearGradient3125);fill-opacity:1;stroke:#000000;stroke-width:0.28694957;stroke-linecap:butt;stroke-linejoin:miter;stroke-miterlimit:4;stroke-opacity:1;font-family:Times New Roman"
       d="m 156.32054,482.37379 0.71033,0.14786 c -0.3427,1.61421 -0.93086,2.71861 -1.76446,3.3132 -0.83363,0.59457 -1.75688,0.78644 -2.76975,0.57562 -0.82873,-0.1725 -1.57306,-0.58079 -2.23297,-1.22487 -0.65995,-0.64409 -1.06798,-2.08652 -1.22411,-4.32729 l -0.4346,-6.29916 -8.07934,9.13562 -3.72924,-0.77625 11.44475,-12.37156 c -0.059,-1.92182 -0.31098,-3.38776 -0.75586,-4.39782 -0.44491,-1.01003 -1.13432,-1.61224 -2.06828,-1.80666 -0.74979,-0.15605 -1.4514,-0.0701 -2.10483,0.25798 -0.6534,0.32806 -1.11168,0.9501 -1.37482,1.86609 l -0.71035,-0.14785 c 0.3583,-1.4936 1.00173,-2.6158 1.93033,-3.36664 0.92861,-0.75079 1.94539,-1.01122 3.05037,-0.78126 0.71033,0.14788 1.33623,0.51551 1.87773,1.10293 0.54145,0.58742 0.92911,1.47886 1.16295,2.67433 0.2338,1.19548 0.47745,3.62247 0.73095,7.28096 l 0.36963,5.14953 c 0.13833,2.13037 0.44783,3.60027 0.92843,4.40973 0.48059,0.80947 1.15498,1.30454 2.02319,1.48527 1.47327,0.30662 2.47991,-0.3266 3.01995,-1.89976 l 0,0 z"
       id="text3899" />
    <path
       style="fill:url(#linearGradient3106);fill-opacity:1;stroke:#000000;stroke-width:0.29166868;stroke-miterlimit:4;stroke-opacity:1;stroke-dasharray:none"
       d="m 195.61545,524.12562 c -0.0252,-0.12681 -0.35512,-3.50493 -0.73333,-7.50692 -0.37819,-4.00201 -0.71423,-7.49876 -0.74676,-7.77062 l -0.0591,-0.49424 -0.27719,0.53473 c -0.59332,1.14452 -1.27062,1.93979 -1.65211,1.93979 -0.14665,0 -0.29056,-0.0409 -0.31981,-0.0907 -0.0292,-0.0498 0.11539,-0.4765 0.32138,-0.94796 1.23102,-2.8175 2.14645,-6.46332 2.14834,-8.55631 6.9e-4,-0.7578 0.0881,-1.26824 0.2172,-1.26824 0.24388,0 2.69767,1.17057 2.69767,1.28692 0,0.0725 -0.17428,0.28925 -0.38726,0.48158 -0.34543,0.31194 -0.42355,0.47576 -0.72314,1.51683 -0.18471,0.64195 -0.31829,1.18571 -0.29681,1.20836 0.0214,0.0227 1.51625,-0.11852 3.3217,-0.31375 l 3.28267,-0.35496 0.72071,-0.78517 c 0.39638,-0.43184 0.75037,-0.78517 0.78662,-0.78517 0.10972,0 1.6787,1.28547 1.97624,1.61917 0.15281,0.17137 0.25866,0.37224 0.23525,0.44636 -0.0307,0.0971 -0.75425,0.21061 -2.58987,0.40625 -1.40103,0.14931 -2.56258,0.28837 -2.58123,0.309 -0.0188,0.0206 0.0481,0.86767 0.148,1.88225 0.1,1.01457 0.18309,1.93205 0.18452,2.03885 0.002,0.1774 0.0593,0.18877 0.65833,0.13171 l 0.65572,-0.0625 0.63888,-0.73801 c 0.46957,-0.54238 0.67557,-0.71439 0.77716,-0.6489 0.39748,0.25619 2.08538,1.73454 2.11145,1.84932 0.0379,0.16668 -0.10156,0.19095 -2.6532,0.46188 -1.12201,0.11913 -2.04615,0.22346 -2.05366,0.23182 -0.0151,0.0169 0.33797,3.61729 0.37796,3.85365 0.019,0.1125 0.15609,0.14341 0.55903,0.12609 0.5289,-0.0227 0.54013,-0.03 1.22362,-0.78956 0.3794,-0.42165 0.75096,-0.76606 0.8257,-0.76541 0.15878,9.8e-4 2.22451,1.8062 2.22451,1.94354 0,0.0511 -0.0328,0.11346 -0.0727,0.13869 -0.0401,0.0252 -1.07829,0.14913 -2.30716,0.27538 -1.22885,0.12625 -2.26073,0.25823 -2.29305,0.29329 -0.0719,0.0783 0.32513,4.27488 0.41332,4.36699 0.0346,0.0362 0.46971,0.0181 0.96666,-0.0406 l 0.90352,-0.10637 0.78396,-0.82274 c 0.43115,-0.45253 0.83814,-0.82277 0.90441,-0.82277 0.14994,0 2.44978,1.92333 2.44978,2.04872 0,0.0502 -0.0372,0.11562 -0.0827,0.14528 -0.0455,0.0296 -2.47862,0.30876 -5.40695,0.62024 -2.92835,0.31146 -5.34603,0.58927 -5.37264,0.61734 -0.0266,0.028 -3.5e-4,0.50109 0.0582,1.05118 l 0.10671,1.00013 -0.30146,0.27761 c -0.2707,0.24929 -1.39109,0.79846 -1.62898,0.79846 -0.0518,0 -0.11483,-0.1038 -0.13995,-0.23058 z m 3.4286,-4.12141 c 0.71393,-0.0803 1.31445,-0.1634 1.33449,-0.18456 0.0431,-0.0456 -0.3563,-4.30903 -0.40955,-4.37065 -0.0508,-0.0588 -2.82357,0.2145 -2.93295,0.28917 -0.0655,0.0447 0.27367,4.19676 0.35872,4.3906 0.0205,0.0469 0.34057,0.0227 1.64929,-0.12456 z m -0.37518,-5.4934 c 0.61443,-0.0638 1.13663,-0.13573 1.16044,-0.15994 0.0632,-0.0641 -0.29067,-3.86858 -0.36724,-3.94969 -0.0753,-0.0797 -2.85275,0.21354 -2.94148,0.31062 -0.033,0.0358 0.0191,0.84932 0.1156,1.80754 0.0964,0.95822 0.17792,1.85003 0.18113,1.98181 0.006,0.21799 0.0387,0.23446 0.37011,0.18259 0.20036,-0.0314 0.86701,-0.10917 1.48144,-0.17293 z m -0.72857,-5.01985 c 0.58771,-0.0595 1.15727,-0.12711 1.26569,-0.15028 l 0.19713,-0.042 -0.19376,-2.0534 c -0.18223,-1.93113 -0.20555,-2.05325 -0.39142,-2.05138 -0.49537,0.005 -2.71567,0.308 -2.77988,0.37936 -0.0395,0.0438 0.0101,0.90993 0.11118,1.92451 0.10066,1.0146 0.18417,1.90235 0.18561,1.97281 0.003,0.15639 0.23384,0.15935 1.60547,0.0204 z m -12.52006,12.63623 c -0.49346,-0.61186 -0.64082,-0.86861 -0.64172,-1.11806 -9.7e-4,-0.32242 0.002,-0.32433 0.70312,-0.44773 1.06099,-0.1867 3.79651,-0.94064 5.704,-1.57211 0.93325,-0.30894 1.73104,-0.53941 1.77287,-0.51214 0.0417,0.0272 0.0755,0.15063 0.0748,0.27413 -9.8e-4,0.18049 -0.22484,0.3536 -1.14142,0.88256 -0.62714,0.36192 -2.15451,1.24969 -3.39416,1.97281 -1.23963,0.72313 -2.2951,1.31479 -2.34544,1.31479 -0.0503,0 -0.37978,-0.35741 -0.73209,-0.79425 z m -0.0591,-5.55787 c -0.26762,-0.56265 -0.4866,-1.08801 -0.4866,-1.16747 0,-0.0794 0.11306,-0.17443 0.25125,-0.211 0.36219,-0.0958 1.14376,-0.90562 1.65081,-1.71024 0.47113,-0.74763 1.74207,-3.4537 1.66184,-3.53836 -0.0267,-0.0282 -0.1948,0.0284 -0.37342,0.1259 -0.62346,0.34032 -3.22981,1.47759 -3.38627,1.47759 -0.15581,0 -1.26136,-1.60296 -1.26136,-1.82886 0,-0.0633 0.21073,-0.22751 0.46828,-0.36521 0.43363,-0.23181 0.4991,-0.32031 0.88467,-1.19578 0.79883,-1.81385 1.49616,-4.06204 1.9604,-6.32047 0.14615,-0.71105 0.25899,-1.05045 0.34917,-1.05045 0.22022,0 2.06028,1.3714 2.06262,1.53725 9.8e-4,0.0846 -0.16558,0.27886 -0.37061,0.4318 -0.30033,0.22403 -0.43472,0.4431 -0.69161,1.12734 -0.44779,1.19269 -1.44816,3.3407 -2.0779,4.46179 -0.29288,0.52137 -0.5244,0.94795 -0.51447,0.94795 0.0101,0 0.73932,-0.11459 1.62091,-0.25466 0.88157,-0.14008 1.63841,-0.25537 1.68186,-0.25621 0.17665,-0.003 1.32957,-2.89609 1.32957,-3.33586 0,-0.38257 0.32481,-0.24663 1.21449,0.50827 0.50746,0.43061 0.92268,0.80053 0.92268,0.82203 0,0.0214 -0.1934,0.23909 -0.42977,0.48352 -0.27856,0.28805 -0.82942,1.18211 -1.56561,2.54106 -1.20743,2.22885 -2.13217,3.78194 -2.82545,4.74528 -0.23372,0.32475 -0.42492,0.6039 -0.42492,0.62036 0,0.0165 1.03822,-0.12127 2.30716,-0.3061 1.26892,-0.18485 2.47109,-0.33719 2.67143,-0.33855 0.3506,-0.002 0.3643,0.0111 0.3643,0.34894 0,0.34067 -0.0172,0.35641 -0.55857,0.51384 -1.39972,0.40702 -3.94965,1.33032 -4.82979,1.74883 -0.53262,0.25324 -1.00215,0.46044 -1.04342,0.46044 -0.0414,0 -0.29404,-0.46034 -0.56167,-1.02297 z m 14.33726,-12.86815 c -0.0825,-0.0872 -0.19716,-0.35229 -0.25474,-0.5893 -0.27233,-1.12142 -0.68973,-1.89338 -1.45001,-2.68174 -0.36711,-0.38064 -0.49047,-0.58382 -0.49047,-0.80775 0,-0.28953 0.0124,-0.29742 0.38593,-0.24457 0.67177,0.095 1.93537,0.82659 2.64981,1.53401 0.65466,0.64826 0.65572,0.6502 0.65521,1.2092 -6.9e-4,0.64595 -0.27359,1.21837 -0.7337,1.53837 -0.3458,0.24049 -0.56241,0.25237 -0.76203,0.0417 z"
       id="path3098" />
    <path
       style="fill:url(#linearGradient4929);fill-opacity:1;stroke:#000000;stroke-width:0.29166868;stroke-miterlimit:4;stroke-opacity:1;stroke-dasharray:none"
       d="m 152.33519,450.85048 c -0.23312,-0.10939 -0.6108,-0.38547 -1.48446,-1.08533 -0.64449,-0.51628 -1.18979,-0.96699 -1.21177,-1.0016 -0.022,-0.0346 -0.0272,-0.079 -0.0118,-0.0984 0.0154,-0.0194 0.28325,-0.19663 0.59503,-0.39364 3.18326,-2.01142 5.83806,-4.34336 7.67407,-6.74075 2.23846,-2.92292 3.99592,-6.50241 4.81434,-9.8057 0.087,-0.35112 0.17688,-0.69395 0.19977,-0.76184 l 0.0416,-0.12344 1.27674,0.62251 c 0.70221,0.34238 1.2906,0.64586 1.3075,0.67439 0.0566,0.0951 -0.47203,1.93804 -0.88563,3.08821 -0.92849,2.58201 -2.32031,5.19298 -3.84297,7.20916 -2.01784,2.6719 -4.4059,5.04554 -7.26013,7.21625 l -0.55702,0.42363 0.005,0.23224 c 0.002,0.12775 -0.0151,0.31475 -0.039,0.4156 -0.0362,0.15333 -0.0649,0.19088 -0.17571,0.22936 -0.10749,0.0373 -0.19129,0.0184 -0.44507,-0.10068 z m -2.91963,-10.42996 c -2.11257,-0.63291 -3.57515,-0.98299 -5.0042,-1.19777 -0.29256,-0.0439 -0.53767,-0.0973 -0.54466,-0.1186 -0.0245,-0.0745 0.84444,-2.80786 0.89868,-2.82669 0.0643,-0.0224 2.96602,0.52716 3.57991,0.67801 0.70237,0.1726 2.88988,0.78323 2.93016,0.81793 0.0335,0.0289 -0.8784,2.7787 -0.95257,2.87209 -0.0166,0.0207 -0.42483,-0.0803 -0.90732,-0.22497 z m 1.29369,-7.18491 c -1.44949,-0.4115 -2.29483,-0.62256 -3.32789,-0.8309 -1.69227,-0.34128 -2.40945,-0.51082 -2.40745,-0.5691 0.005,-0.12233 0.62819,-2.65198 0.66746,-2.70595 0.0295,-0.0407 0.0824,-0.0507 0.17082,-0.0327 0.0704,0.0144 0.78161,0.1587 1.58048,0.32067 0.79886,0.16198 1.69448,0.35319 1.99028,0.42491 0.56172,0.1362 2.33786,0.60313 2.65327,0.69751 l 0.18243,0.0546 -0.0327,0.13886 c -0.11028,0.46827 -0.72627,2.63405 -0.75705,2.662 -0.0204,0.0188 -0.34432,-0.0534 -0.71964,-0.15987 z"
       id="path4921" />
    <path
       style="font-weight:normal;fill:url(#linearGradient2865);fill-opacity:1;stroke:#000000;stroke-width:0.29166868;stroke-miterlimit:4;stroke-opacity:1;font-family:UnBatang"
       d="m 226.81449,424.37211 c 0.2317,0.13879 0.79486,0.61813 1.68951,1.43795 0.29318,0.27029 0.57092,0.48399 0.83326,0.6411 0.75632,0.45307 1.9293,1.10837 3.51895,1.96589 l 1.96219,0.85564 c 1.24984,0.7487 1.74138,1.3155 1.47458,1.70045 -0.10448,0.15063 -0.40961,0.37025 -0.91557,0.6589 l -0.38281,0.26813 -3.70238,3.6411 c -0.18607,0.17323 -0.17471,0.44048 0.0341,0.8018 0.19623,0.37839 0.23067,0.65947 0.10335,0.84326 -0.28983,0.41813 -1.23722,0.14651 -2.8422,-0.81486 l -0.41098,-0.21043 -2.31524,-1.24483 c -1.23874,-0.67051 -1.85812,-1.00576 -1.85812,-1.00576 -0.0923,-0.0553 -0.33921,0.0807 -0.74074,0.40812 l -0.53346,0.39033 -0.34677,0.0763 -0.17997,-0.072 c -0.35463,-0.2124 0.14639,-1.392 1.50308,-3.53877 0.0538,-0.10939 0.0982,-0.18931 0.13327,-0.23987 l 1.56559,-2.68417 c 0.43327,-0.68764 0.67127,-1.12524 0.71399,-1.31281 0.20866,-0.67988 0.0392,-1.3493 -0.50845,-2.00827 -0.32373,-0.38392 -0.44303,-0.66851 -0.35792,-0.85379 0.20878,-0.30122 0.72972,-0.20231 1.56282,0.2967 l 0,0 z m -2.34685,8.53778 3.77905,2.15747 c 0.72155,0.31377 1.31205,0.31233 1.77143,-0.005 0.3555,-0.26099 1.12863,-1.21873 2.31936,-2.87314 0.37083,-0.53504 0.69743,-0.99039 0.97982,-1.36603 0.21216,-0.27533 0.26249,-0.50565 0.15101,-0.69095 -0.0543,-0.0795 -0.15081,-0.16078 -0.28973,-0.244 l -4.84942,-2.83437 -3.86152,5.85527 z m -1.20238,4.14478 1.06496,0.77991 c 1.29967,0.89702 2.08843,1.42874 2.36633,1.59517 l 2.61582,1.56688 2.69627,1.54463 0.0467,0.0279 1.13493,0.39481 0.0233,0.0139 c 1.03368,0.61921 1.43448,1.09626 1.20237,1.43118 -0.0928,0.13377 -0.35724,0.29468 -0.79348,0.48276 -0.13143,0.0637 -0.22784,0.12435 -0.28925,0.18223 -1.0976,1.04695 -1.68294,1.60775 -1.75602,1.68246 -0.0429,0.0928 0.009,0.25417 0.15522,0.48423 0.0964,0.17623 0.11943,0.33199 0.0691,0.46726 -0.0191,0.0593 -0.0404,0.10581 -0.0638,0.13955 -0.0694,0.1 -0.20255,0.15035 -0.39948,0.15086 -0.31264,-0.0211 -1.26763,-0.48655 -2.86499,-1.3964 l -4.86081,-2.91167 c -0.49354,-0.29565 -0.90274,-0.20914 -1.2276,0.25955 l -0.85195,1.22914 c -0.47561,0.68615 -0.19655,1.33884 0.83717,1.95805 l 2.65087,1.51636 0.046,0.0275 c 1.31202,0.78591 2.02005,1.19809 2.12405,1.23654 0.0928,0.0557 0.19097,0.10279 0.29461,0.14179 l 1.88165,0.59394 c 0.10448,0.0387 0.20283,0.0857 0.29515,0.14101 1.25034,0.74896 1.70158,1.37437 1.35374,1.87627 -0.27852,0.40178 -0.74952,0.40393 -1.41309,0.007 l -7.49417,-4.45333 c -0.17001,-0.1019 -0.33979,-0.20353 -0.50931,-0.30507 -1.32712,-0.79498 -1.99816,-1.57586 -2.01313,-2.34274 -0.0112,-0.45659 0.17511,-0.96081 0.55767,-1.51272 l 0.83495,-1.20461 c 0.32447,-0.46816 0.23799,-0.95782 -0.25945,-1.46896 l -0.50943,-0.58908 c -0.0572,-0.1058 -0.0512,-0.20878 0.0182,-0.30885 0.17411,-0.25118 0.65251,-0.15392 1.43524,0.29182 0.0773,0.0463 0.13138,0.0788 0.16248,0.0973 l 1.84518,1.6374 c 0.0928,0.0557 0.17778,0.10649 0.25501,0.15276 1.11096,0.66547 2.80459,1.65613 5.08093,2.97202 0.71018,0.42538 1.30865,0.42878 1.79547,0.0101 0.1852,-0.17301 0.39954,-0.43511 0.64302,-0.78637 0.33616,-0.48502 0.50604,-0.76185 0.50966,-0.83051 0.0427,-0.18757 -0.0438,-0.34594 -0.25949,-0.47515 l -5.55552,-3.18581 c -0.0622,-0.0372 -0.48672,-0.19687 -1.27358,-0.47894 -0.16194,-0.0499 -0.29683,-0.10736 -0.40466,-0.17194 -0.37064,-0.222 -0.79313,-0.7471 -1.26745,-1.57527 l -0.31159,-0.6841 c -0.0423,-0.19082 -0.0345,-0.32811 0.0235,-0.41182 0.0697,-0.10056 0.18933,-0.1001 0.35889,9.8e-4 l 0,0 z m 14.5373,2.13814 c -1.33343,1.92371 -2.38444,2.95159 -3.15307,3.08362 l -0.35904,-0.002 -0.0693,-0.0415 c -0.27789,-0.16643 0.0916,-0.99853 1.10844,-2.49628 l 4.83566,-6.97654 0.39389,-0.61587 0.0175,-0.0254 c 0.36696,-0.56118 0.25962,-1.43038 -0.32203,-2.60752 -0.41617,-0.81787 -0.59724,-1.32878 -0.54319,-1.53268 0.13905,-0.20064 0.44783,-0.15766 0.92633,0.12895 0.66352,0.39748 1.3578,1.09728 2.08277,2.09944 0.36659,0.47972 0.55527,0.8532 0.566,1.12043 0.0116,0.17248 -0.0714,0.37126 -0.24934,0.59627 -0.89243,1.09905 -1.34447,1.657 -1.35613,1.67384 l -3.28728,4.74265 c 0.35458,0.21243 1.0838,0.48343 2.18769,0.813 0.45503,0.13098 0.82149,0.27967 1.09937,0.4461 1.18815,0.71174 1.61998,1.30168 1.29552,1.76984 -0.31321,0.45183 -1.26451,0.2017 -2.85389,-0.75035 l -1.88063,-1.16228 -0.43939,-0.26319 z"
       id="flowRoot2865" />
  </g>
</svg>
