<?xml version="1.0" encoding="UTF-8" standalone="no"?>
<!-- Created with Inkscape (http://www.inkscape.org/) -->
<svg
   xmlns:svg="http://www.w3.org/2000/svg"
   xmlns="http://www.w3.org/2000/svg"
   version="1.0"
   width="135"
   height="135"
   id="svg2">
  <defs
     id="defs5" />
  <g
     transform="matrix(0.23436,0,0,0.235032,29.7721,-4.303884)"
     id="g4835">
    <path
       d="M 60.787376,367.19999 C 60.787376,367.19999 152.45193,467.54265 261.37425,367.19999 C 373.81245,263.61842 222.07044,50.303685 161.08082,50.303685 C 101.50955,50.303685 -52.532714,262.806 60.787376,367.19999 z "
       style="fill:white;fill-opacity:1;fill-rule:evenodd;stroke:#069;stroke-width:38.50495911;stroke-linecap:butt;stroke-linejoin:miter;stroke-miterlimit:4;stroke-dasharray:none;stroke-opacity:1"
       id="path1456" />
    <path
       d="M 108,972.36218 C 108,987.82615 95.463973,1000.3622 80,1000.3622 C 64.536027,1000.3622 52,987.82615 52,972.36218 C 52,956.89821 64.536027,944.36218 80,944.36218 C 95.463973,944.36218 108,956.89821 108,972.36218 z "
       transform="matrix(2.142857,0,0,2.142857,-10.42856,-1812.633)"
       style="fill:#900;fill-opacity:1;fill-rule:evenodd;stroke:none;stroke-width:20;stroke-linecap:round;stroke-linejoin:round;stroke-miterlimit:4;stroke-dasharray:none;stroke-dashoffset:0;stroke-opacity:1"
       id="path2331" />
    <path
       d="M 61.623541,260.4178 C 61.623541,260.4178 62.242857,260.4178 81.204299,260.4178 C 97.406452,167.34773 225.35531,168.11807 240.66075,260.4178 C 259.63701,260.4178 260.66867,260.5409 260.66867,260.5409 L 260.66867,260.5409 C 270.44581,253.40166 258.34868,163.01248 175.7082,96.034203 L 175.59293,95.940775 C 166.09979,87.585126 157.43845,85.453462 146.15316,95.694594 C 66.758129,167.7437 50.424701,251.65005 61.623541,260.4178 z "
       style="fill:#396;fill-opacity:1;fill-rule:evenodd;stroke:#396;stroke-width:0.91820478;stroke-linecap:butt;stroke-linejoin:round;stroke-miterlimit:1;stroke-dasharray:none;stroke-opacity:1"
       id="path2202" />
    <path
       d="M 263.43732,285.08885 C 263.43732,285.08885 263.42382,281.06299 260.43034,281.06299 C 260.43034,281.06299 260.43034,281.06299 240.98159,281.06299 C 223.47496,375.13727 97.829034,373.89298 81.58768,281.06299 C 81.58768,281.06299 62.01738,281.06299 61.982871,281.06299 C 58.989157,281.06299 58.022087,284.94495 58.022087,284.94495 L 58.025579,285.03422 C 79.494575,403.18266 240.68036,406.14379 263.43732,285.08885 z "
       style="fill:#396;fill-opacity:1;fill-rule:evenodd;stroke:#396;stroke-width:0.10043946;stroke-linecap:butt;stroke-linejoin:miter;stroke-miterlimit:4;stroke-dasharray:none;stroke-opacity:1"
       id="path3070" />
  </g>
  <path
     d="M 19.281688,107.10352 L 15.062938,116 L 13.598094,116 L 7.6020002,102.18164 L 11.205516,102.18164 L 14.418406,109.7207 L 17.924266,102.18164 L 20.658641,102.18164 L 24.1645,109.7207 L 27.35786,102.18164 L 30.961375,102.18164 L 24.984813,116 L 23.519969,116 L 19.281688,107.10352 z M 36.019969,102.18164 L 36.019969,115.82422 L 32.621531,115.82422 L 32.621531,102.18164 L 36.019969,102.18164 z M 50.63911,102.18164 L 46.19575,108.58789 L 52.221141,115.82422 L 47.963328,115.82422 L 42.562938,109.42773 L 42.562938,115.82422 L 39.1645,115.82422 L 39.1645,102.18164 L 42.562938,102.18164 L 42.562938,108.32422 L 46.898875,102.18164 L 50.63911,102.18164 z M 57.074656,102.18164 L 57.074656,115.82422 L 53.676219,115.82422 L 53.676219,102.18164 L 57.074656,102.18164 z M 67.572703,107.24023 L 71.957469,102.18164 L 74.916453,102.18164 L 74.916453,115.82422 L 71.518016,115.82422 L 71.518016,107.30859 L 67.836375,111.58594 L 67.318797,111.58594 L 63.637156,107.30859 L 63.637156,115.82422 L 60.238719,115.82422 L 60.238719,102.18164 L 63.197703,102.18164 L 67.572703,107.24023 z M 88.031688,113.32422 L 88.031688,115.82422 L 77.973094,115.82422 L 77.973094,102.18164 L 87.894969,102.18164 L 87.894969,104.68164 L 81.371531,104.68164 L 81.371531,107.54297 L 87.592235,107.54297 L 87.592235,110.04297 L 81.371531,110.04297 L 81.371531,113.32422 L 88.031688,113.32422 z M 90.609813,102.18164 L 96.625438,102.18164 C 98.949647,102.18165 100.78721,102.81805 102.13813,104.09082 C 103.48903,105.36362 104.16449,107.00912 104.1645,109.02734 C 104.16449,111.14323 103.47926,112.80502 102.10884,114.0127 C 100.73838,115.22038 98.783631,115.82422 96.244578,115.82422 L 90.609813,115.82422 L 90.609813,102.18164 z M 94.00825,104.68164 L 94.00825,113.32422 L 96.225047,113.32422 C 97.663841,113.32422 98.7641,112.92871 99.525828,112.1377 C 100.28754,111.34668 100.66839,110.30339 100.66841,109.00781 C 100.66839,107.66667 100.28265,106.61036 99.51118,105.83887 C 98.739686,105.06739 97.631289,104.68165 96.185985,104.68164 L 94.00825,104.68164 z M 110.19966,102.18164 L 110.19966,115.82422 L 106.80122,115.82422 L 106.80122,102.18164 L 110.19966,102.18164 z M 121.34223,102.18164 L 127.39692,115.82422 L 123.74458,115.82422 L 122.62153,113.12891 L 116.51802,113.12891 L 115.50239,115.82422 L 111.89888,115.82422 L 117.39692,102.18164 L 121.34223,102.18164 z M 121.61567,110.74609 L 119.41841,105.44336 L 117.41645,110.74609 L 121.61567,110.74609 z "
     style="font-size:14px;font-style:normal;font-weight:normal;fill:#3f3f3f;fill-opacity:1;stroke:none;stroke-width:1px;stroke-linecap:butt;stroke-linejoin:miter;stroke-opacity:1;font-family:Arial"
     id="text2770" />
  <path
     d="M 35.495533,120.70898 L 34.341236,128.89453 L 32.601002,128.89453 L 33.755299,120.70898 L 35.495533,120.70898 z M 44.89983,120.70898 L 43.757252,128.89453 L 42.104908,128.89453 L 38.718189,123.35156 L 37.950611,128.89453 L 36.210377,128.89453 L 37.364674,120.70898 L 39.104908,120.70898 L 42.427174,126.05273 L 43.159595,120.70898 L 44.89983,120.70898 z M 53.325611,120.90234 L 53.038502,122.41406 C 52.390057,122.21485 51.729901,122.11524 51.058033,122.11523 C 49.952559,122.11524 49.094162,122.43165 48.482838,123.06445 C 47.871507,123.69727 47.565843,124.44141 47.565845,125.29688 C 47.565843,125.96485 47.77678,126.49707 48.198658,126.89355 C 48.620529,127.29004 49.188888,127.48828 49.903736,127.48828 C 50.782637,127.48828 51.774823,127.16992 52.880299,126.5332 L 52.628345,128.35547 C 51.655683,128.78516 50.696699,129 49.751392,129 C 48.563889,129 47.602952,128.6543 46.86858,127.96289 C 46.134204,127.27149 45.767017,126.36914 45.767017,125.25586 C 45.767017,123.89258 46.26311,122.77637 47.255299,121.90723 C 48.247483,121.03809 49.530685,120.60352 51.104908,120.60352 C 51.792401,120.60352 52.532635,120.70313 53.325611,120.90234 L 53.325611,120.90234 z M 62.296314,120.70898 L 61.575611,125.8125 C 61.278728,127.9375 60.02287,129 57.808033,129 C 56.640061,129 55.743577,128.7373 55.11858,128.21191 C 54.493579,127.68652 54.181079,126.95508 54.18108,126.01758 C 54.181079,125.81055 54.196704,125.59375 54.227955,125.36719 L 54.901783,120.70898 L 56.642017,120.70898 L 55.979908,125.34375 C 55.960374,125.5 55.950608,125.64649 55.950611,125.7832 C 55.950608,126.34571 56.122483,126.77051 56.466236,127.05762 C 56.809983,127.34473 57.257248,127.48828 57.808033,127.48828 C 58.366622,127.48828 58.827559,127.33301 59.190845,127.02246 C 59.554121,126.71192 59.776777,126.25977 59.858814,125.66602 L 60.55608,120.70898 L 62.296314,120.70898 z M 64.001392,120.70898 L 66.602955,120.70898 C 67.493575,120.70899 68.170332,120.8877 68.633228,121.24512 C 69.096112,121.60255 69.327557,122.08399 69.327564,122.68945 C 69.327557,123.49805 68.931073,124.10547 68.138111,124.51172 C 68.614667,124.65625 68.987714,124.91211 69.257252,125.2793 C 69.526776,125.64649 69.661541,126.0586 69.661549,126.51563 C 69.661541,127.14063 69.410565,127.69336 68.908619,128.17383 C 68.40666,128.6543 67.72209,128.89453 66.854908,128.89453 L 62.847095,128.89453 L 64.001392,120.70898 z M 65.559986,122.08008 L 65.284595,123.87891 L 66.46233,123.87891 C 66.833419,123.87891 67.119552,123.79102 67.320728,123.61523 C 67.521895,123.43946 67.622481,123.20313 67.622486,122.90625 C 67.622481,122.35548 67.239669,122.08008 66.474049,122.08008 L 65.559986,122.08008 z M 65.102955,125.24414 L 64.757252,127.5293 L 66.409595,127.5293 C 66.882247,127.5293 67.242598,127.42188 67.49065,127.20703 C 67.738692,126.99219 67.862715,126.69922 67.86272,126.32813 C 67.862715,125.98438 67.725996,125.71778 67.452564,125.52832 C 67.179122,125.33887 66.808029,125.24414 66.339283,125.24414 L 65.102955,125.24414 z M 75.468189,120.60352 L 76.909595,128.89453 L 75.122486,128.89453 L 74.870533,127.10742 L 72.327564,127.10742 L 71.530689,128.89453 L 69.614674,128.89453 L 73.622486,120.60352 L 75.468189,120.60352 z M 72.83147,125.94141 L 74.724049,125.94141 L 74.290455,122.32031 L 72.83147,125.94141 z M 85.429127,120.70898 L 85.235767,122.08008 L 82.575611,122.08008 L 81.614674,128.89453 L 79.874439,128.89453 L 80.835377,122.08008 L 78.239674,122.08008 L 78.433033,120.70898 L 85.429127,120.70898 z M 90.397877,120.60352 C 91.58537,120.60352 92.554119,120.95118 93.304127,121.64648 C 94.054118,122.3418 94.429117,123.23829 94.429127,124.33594 C 94.429117,125.71485 93.987711,126.83692 93.104908,127.70215 C 92.222088,128.56738 91.09123,129 89.71233,129 C 88.517014,129 87.530687,128.64258 86.753345,127.92773 C 85.976001,127.21289 85.587329,126.30274 85.58733,125.19727 C 85.587329,123.88086 86.043383,122.78614 86.955494,121.91309 C 87.8676,121.04005 89.01506,120.60352 90.397877,120.60352 L 90.397877,120.60352 z M 89.724049,127.48828 C 90.532637,127.48828 91.219159,127.19336 91.783619,126.60352 C 92.348065,126.01367 92.630291,125.29688 92.630299,124.45313 C 92.630291,123.77735 92.408611,123.21876 91.96526,122.77734 C 91.521894,122.33594 90.960371,122.11524 90.280689,122.11523 C 89.491622,122.11524 88.811935,122.41016 88.241627,123 C 87.671311,123.58985 87.386155,124.29493 87.386158,125.11523 C 87.386155,125.81446 87.603929,126.38477 88.039478,126.82617 C 88.475022,127.26758 89.036544,127.48828 89.724049,127.48828 L 89.724049,127.48828 z M 96.532642,120.70898 L 99.339283,120.70898 C 100.21428,120.70899 100.89299,120.95216 101.37542,121.43848 C 101.85783,121.92481 102.09904,122.50196 102.09905,123.16992 C 102.09904,123.70899 101.94181,124.17188 101.62737,124.55859 C 101.31291,124.94532 100.86271,125.19532 100.27678,125.30859 L 100.27678,125.33203 C 100.6049,125.46094 100.89201,125.78125 101.13811,126.29297 L 102.39788,128.89453 L 100.476,128.89453 L 99.696705,127.23633 C 99.349044,126.50196 99.079513,126.04297 98.888111,125.85938 C 98.696701,125.67578 98.386154,125.58399 97.95647,125.58398 L 97.58733,125.58398 L 97.130299,128.89453 L 95.390064,128.89453 L 96.532642,120.70898 z M 98.079517,122.08008 L 97.76897,124.3125 L 98.630299,124.3125 C 99.157638,124.3125 99.567794,124.2002 99.860767,123.97559 C 100.15373,123.75098 100.30022,123.4668 100.30022,123.12305 C 100.30022,122.79883 100.17912,122.54395 99.936939,122.3584 C 99.694747,122.17286 99.35881,122.08008 98.929127,122.08008 L 98.079517,122.08008 z "
     style="font-size:14px;font-style:normal;font-weight:normal;fill:#666;fill-opacity:1;stroke:none;stroke-width:1px;stroke-linecap:butt;stroke-linejoin:miter;stroke-opacity:1;font-family:Arial"
     id="text2778" />
</svg>
